<?xml version="1.0" encoding="utf-8"?>
<!-- Generator: Adobe Illustrator 22.0.1, SVG Export Plug-In . SVG Version: 6.00 Build 0)  -->
<svg version="1.1" id="Layer_1" xmlns="http://www.w3.org/2000/svg" xmlns:xlink="http://www.w3.org/1999/xlink" x="0px" y="0px"
	 viewBox="0 0 238 237.8" style="enable-background:new 0 0 238 237.8;" xml:space="preserve">
<g>
	<path d="M25.7,92.5c0-1.4,0-2.4,0-3.4c0-21.3,0-42.7,0-64c0-2.7,0.2-5.5,0.7-8.2c1.8-9.4,8.2-15.3,17.6-16.5C46.5,0.2,49,0,51.5,0
		C74.3,0,97,0,119.8,0.1c3.6,0,7.4,0.3,10.9,1.3c8.9,2.4,14,9.4,14.7,19.4c0.1,1.5,0.1,3,0.1,4.5c0,21.2,0,42.5,0,63.7
		c0,1,0,2,0,3.4c1.2,0,2.3,0,3.3,0c22.4,0,44.8,0,67.2,0.2c6.8,0.1,12.8,2.5,17.2,8.1c3.2,4.1,4.5,9,4.5,14
		c0.1,25.1,0.1,50.2,0,75.2c0,3.5-0.9,7.2-2.3,10.4c-3.4,8.1-10.3,11.3-18.6,11.7c-8.2,0.4-16.5,0.2-24.7,0.2c-14.5,0-29,0-43.5,0
		c-1,0-1.9,0-2.8,0c-0.5,3.4-0.6,6.6-1.3,9.6c-2.1,9.1-8.1,14.4-17.3,15.6c-2.5,0.3-5,0.5-7.5,0.5c-22.8,0-45.7,0.1-68.5,0
		c-3.6,0-7.2-0.3-10.6-1.2c-8.8-2.3-13.9-9.1-14.8-18.8c-0.2-1.7-0.2-3.5-0.3-5.5c-2.3-0.2-4.6-0.2-6.9-0.6
		c-12.1-2.1-18.5-9.5-18.8-22.1c-0.2-6.7,0-13.3,0-20c0-17.7-0.1-35.3,0.1-53c0.1-4.2,0.8-8.6,2.3-12.4C5.5,96.2,12.7,93.3,21,92.5
		C22.4,92.4,23.8,92.5,25.7,92.5z M34,203.8c34.5,0,68.9,0,103.1,0c0-34.5,0-68.8,0-103c-34.5,0-68.8,0-103.1,0
		C34,135.2,34,169.4,34,203.8z M145.6,203.9c0.9,0,1.5,0.1,2.2,0.1c21.6,0,43.2,0,64.7,0c1.6,0,3.2-0.1,4.7-0.4
		c7-1,11.2-5.3,12.1-12.2c0.2-1.6,0.3-3.2,0.3-4.7c0-22.9,0-45.8,0-68.7c0-1.6-0.1-3.2-0.3-4.7c-0.9-7.3-5-11.4-12.3-12.2
		c-1.9-0.2-3.8-0.3-5.7-0.3c-21,0-42,0-63,0c-0.9,0-1.8,0-2.8,0C145.6,135.2,145.6,169.4,145.6,203.9z M33.9,92.2
		c34.6,0,69,0,103.4,0c0-9.3,0-18.4,0-27.4c0-13.4,0-26.8,0-40.2c0-10.2-4.8-15.7-15-16c-11.6-0.4-23.1-0.2-34.7-0.2
		c-13.3,0-26.6,0-40,0.3c-7.5,0.2-12,4.5-13.3,11.8c-0.3,1.6-0.4,3.3-0.4,5c0,19.9,0,39.8,0,59.7C33.9,87.3,33.9,89.6,33.9,92.2z
		 M25.5,100.9c-9-1.1-15.6,3.5-17,11.7c-0.3,1.8-0.4,3.6-0.4,5.5c0,22.9,0,45.8,0,68.7c0,1.6,0.1,3.2,0.3,4.7
		c1.1,8.5,8.6,13.9,17.1,12.2C25.5,169.4,25.5,135.1,25.5,100.9z M34.1,212.4c-1,10.2,4.4,16.8,14.3,17.2
		c10.7,0.4,21.5,0.3,32.2,0.2c14.2,0,28.5,0,42.7-0.3c8.9-0.2,14.6-6.4,13.7-17.1C102.8,212.4,68.5,212.4,34.1,212.4z"/>
	<path d="M166.4,41.1c2,1.9,4.1,3.7,6,5.7c1.9,2,2,4.2,0.3,6c-1.5,1.6-4.1,1.7-5.8,0c-4.4-4.2-8.7-8.5-12.9-12.9
		c-1.8-1.9-1.7-4.1,0.2-6c4.1-4.2,8.2-8.3,12.4-12.4c2-1.9,4.5-2,6.2-0.3c1.7,1.8,1.6,4.1-0.5,6.2c-1.6,1.6-3.2,3.1-5.1,5
		c3.4,0.5,6.3,0.7,9.1,1.3c11.9,2.5,21.7,8.7,29.2,18.3c6.4,8.2,8.5,17.7,8.3,27.9c-0.1,3.3-1.8,5.2-4.3,5c-2.6-0.1-4.1-2-4-5.3
		c0.8-21.5-16.4-37.3-36.2-38.6c-0.9-0.1-1.3-0.1-2.8,0C166.4,41.1,166.4,41.1,166.4,41.1z"/>
</g>
</svg>
