<?xml version="1.0" encoding="utf-8"?>
<!-- Generator: Adobe Illustrator 24.3.0, SVG Export Plug-In . SVG Version: 6.00 Build 0)  -->
<svg version="1.1" id="Capa_1" xmlns="http://www.w3.org/2000/svg" xmlns:xlink="http://www.w3.org/1999/xlink" x="0px" y="0px"
	 viewBox="0 0 576.6 148.7" style="enable-background:new 0 0 576.6 148.7;" xml:space="preserve">
<style type="text/css">
	.st0{fill:#EA183C;}
	.st1{fill:#101820;}
	.st2{fill:#FFFFFF;}
</style>
<g>
	<g>
		<g>
			<path class="st1" d="M185.7,24.6h51.9c22.2,0,34.2,12,34.2,35.9c0,28.3-16.7,35.9-37.3,35.9h-48.8V24.6z M209.7,80.3h20
				c13.7,0,17.4-10.1,17.4-19.9c0-13.4-6.5-19.7-19.3-19.7h-18.1V80.3z"/>
			<path class="st1" d="M303.7,24.6H333l30.9,71.8h-25.7l-4.3-11.7h-31.4l-4.3,11.7h-25.7L303.7,24.6z M318.3,42.7h-0.2l-10,27.2
				h20.1L318.3,42.7z"/>
			<path class="st1" d="M351.7,24.6H378l18.3,51.2h0.2l18.3-51.2h26.3l-32,71.8h-25.3L351.7,24.6z"/>
			<path class="st1" d="M444.8,24.6h23.9v71.8h-23.9V24.6z"/>
			<path class="st1" d="M483.5,24.6h51.9c22.2,0,34.2,12,34.2,35.9c0,28.3-16.7,35.9-37.3,35.9h-48.8V24.6z M507.5,80.3h20
				c13.7,0,17.4-10.1,17.4-19.9c0-13.4-6.5-19.7-19.3-19.7h-18.1V80.3z"/>
		</g>
		<g>
			<g>
				<path class="st1" d="M186.3,127l1.3-1.7c0.9,0.7,1.7,1.2,2.4,1.5c0.7,0.3,1.5,0.5,2.3,0.5c0.9,0,1.7-0.2,2.3-0.6
					c0.6-0.4,0.9-0.9,0.9-1.6c0-0.6-0.2-1-0.6-1.3c-0.4-0.3-1-0.5-2-0.7l-2.6-0.4c-1.2-0.2-2.1-0.6-2.7-1.2
					c-0.6-0.6-0.9-1.4-0.9-2.3c0-1.2,0.5-2.2,1.4-3c0.9-0.8,2.2-1.1,3.7-1.1c1,0,2,0.2,3,0.5c1,0.3,1.8,0.8,2.6,1.3l-1.2,1.8
					c-0.7-0.5-1.4-0.9-2.2-1.2c-0.8-0.3-1.5-0.4-2.3-0.4c-0.8,0-1.5,0.2-2,0.6c-0.5,0.4-0.8,0.8-0.8,1.4c0,0.5,0.2,0.9,0.5,1.1
					c0.3,0.3,0.9,0.5,1.6,0.6l2.5,0.4c1.4,0.2,2.4,0.7,3.1,1.3c0.7,0.6,1,1.5,1,2.5c0,0.6-0.1,1.2-0.4,1.7s-0.7,1-1.1,1.4
					c-0.5,0.4-1.1,0.7-1.8,0.9c-0.7,0.2-1.4,0.3-2.3,0.3c-1.1,0-2.1-0.2-3.1-0.6C188.1,128.3,187.2,127.7,186.3,127z"/>
				<path class="st1" d="M209.3,128l-5-9.9V129h-2.2v-13.8h3.1l4.1,8.4l4.1-8.4h3.1V129h-2.3v-10.8L209.3,128z"/>
				<path class="st1" d="M220.2,129l5.5-13.8h2.8l5.4,13.8h-2.6l-1.4-3.9h-5.7l-1.4,3.9H220.2z M224.8,123.3h4.3l-2.2-5.9
					L224.8,123.3z"/>
				<path class="st1" d="M237.5,129v-13.8h6.2c1.4,0,2.5,0.4,3.4,1.2s1.3,1.8,1.3,3c0,0.9-0.2,1.7-0.7,2.3s-1.2,1.2-2,1.4l2.9,5.8
					h-2.7l-2.7-5.5h-3.3v5.5H237.5z M243.5,117.2h-3.6v4.4h3.6c0.7,0,1.3-0.2,1.8-0.6s0.7-0.9,0.7-1.6c0-0.7-0.2-1.2-0.7-1.6
					S244.2,117.2,243.5,117.2z"/>
				<path class="st1" d="M251.4,117.2v-2.1h11.7v2.1h-4.6V129h-2.4v-11.8H251.4z"/>
				<path class="st1" d="M273.5,129v-13.8h10v2h-7.6v3.9h5.3v2h-5.3v5.9H273.5z"/>
				<path class="st1" d="M284.2,129l5.5-13.8h2.8l5.4,13.8h-2.6l-1.4-3.9h-5.7l-1.4,3.9H284.2z M288.8,123.3h4.3l-2.2-5.9
					L288.8,123.3z"/>
				<path class="st1" d="M301.5,129v-13.8h6.2c1.4,0,2.5,0.4,3.4,1.2s1.3,1.8,1.3,3c0,0.9-0.2,1.7-0.7,2.3s-1.2,1.2-2,1.4l2.9,5.8
					h-2.7l-2.7-5.5h-3.3v5.5H301.5z M307.5,117.2h-3.6v4.4h3.6c0.7,0,1.3-0.2,1.8-0.6s0.7-0.9,0.7-1.6c0-0.7-0.2-1.2-0.7-1.6
					S308.3,117.2,307.5,117.2z"/>
				<path class="st1" d="M324,128l-5-9.9V129h-2.2v-13.8h3.1l4.1,8.4l4.1-8.4h3.1V129h-2.3v-10.8L324,128z"/>
				<path class="st1" d="M336.3,129v-13.8h2.4V129H336.3z"/>
				<path class="st1" d="M343.8,115.2h2.3l7.3,10l0-10h2.3V129h-2.1l-7.5-10.3l0,10.3h-2.3V115.2z"/>
				<path class="st1" d="M374.2,122.2c0,1-0.2,1.9-0.5,2.8s-0.8,1.6-1.4,2.2c-0.6,0.6-1.3,1.1-2.1,1.5c-0.8,0.4-1.7,0.5-2.7,0.5
					c-1,0-2-0.2-2.8-0.6s-1.6-0.9-2.3-1.5s-1.2-1.4-1.5-2.3s-0.6-1.8-0.6-2.8s0.2-1.9,0.6-2.8c0.4-0.9,0.9-1.6,1.5-2.3
					c0.6-0.6,1.4-1.1,2.3-1.5c0.9-0.4,1.8-0.6,2.8-0.6c1.1,0,2.2,0.2,3.2,0.6c1,0.4,1.8,1,2.5,1.8l-1.7,1.5
					c-0.5-0.6-1.1-1.1-1.8-1.4c-0.7-0.3-1.4-0.5-2.2-0.5c-0.7,0-1.3,0.1-1.9,0.4c-0.6,0.3-1.1,0.6-1.5,1.1c-0.4,0.4-0.7,1-1,1.6
					c-0.2,0.6-0.4,1.3-0.4,2c0,0.7,0.1,1.4,0.4,2s0.6,1.1,1,1.6c0.4,0.5,0.9,0.8,1.5,1.1c0.6,0.3,1.2,0.4,1.9,0.4
					c1.1,0,2.1-0.3,2.9-1c0.8-0.7,1.2-1.6,1.4-2.6h-4.2v-2h6.7V122.2z"/>
				<path class="st1" d="M383.9,127l1.3-1.7c0.9,0.7,1.7,1.2,2.4,1.5c0.7,0.3,1.5,0.5,2.3,0.5c0.9,0,1.7-0.2,2.3-0.6
					c0.6-0.4,0.9-0.9,0.9-1.6c0-0.6-0.2-1-0.6-1.3c-0.4-0.3-1-0.5-2-0.7l-2.6-0.4c-1.2-0.2-2.1-0.6-2.7-1.2
					c-0.6-0.6-0.9-1.4-0.9-2.3c0-1.2,0.5-2.2,1.4-3c0.9-0.8,2.2-1.1,3.7-1.1c1,0,2,0.2,3,0.5c1,0.3,1.8,0.8,2.6,1.3l-1.2,1.8
					c-0.7-0.5-1.4-0.9-2.2-1.2c-0.8-0.3-1.5-0.4-2.3-0.4c-0.8,0-1.5,0.2-2,0.6c-0.5,0.4-0.8,0.8-0.8,1.4c0,0.5,0.2,0.9,0.5,1.1
					c0.3,0.3,0.9,0.5,1.6,0.6l2.5,0.4c1.4,0.2,2.4,0.7,3.1,1.3c0.7,0.6,1,1.5,1,2.5c0,0.6-0.1,1.2-0.4,1.7s-0.7,1-1.1,1.4
					c-0.5,0.4-1.1,0.7-1.8,0.9c-0.7,0.2-1.4,0.3-2.3,0.3c-1.1,0-2.1-0.2-3.1-0.6C385.7,128.3,384.8,127.7,383.9,127z"/>
				<path class="st1" d="M413.2,122.1c0,1-0.2,1.9-0.5,2.8s-0.9,1.6-1.5,2.3s-1.4,1.1-2.2,1.5c-0.9,0.4-1.8,0.6-2.8,0.6
					s-1.9-0.2-2.8-0.6c-0.9-0.4-1.6-0.9-2.2-1.5c-0.6-0.6-1.1-1.4-1.5-2.3c-0.4-0.9-0.5-1.8-0.5-2.8s0.2-1.9,0.5-2.8
					c0.4-0.9,0.9-1.6,1.5-2.3c0.6-0.6,1.4-1.1,2.2-1.5c0.9-0.4,1.8-0.6,2.8-0.6s1.9,0.2,2.8,0.6c0.9,0.4,1.6,0.9,2.2,1.5
					c0.6,0.6,1.1,1.4,1.5,2.3C413,120.2,413.2,121.1,413.2,122.1z M410.7,122.1c0-0.7-0.1-1.4-0.3-2c-0.2-0.6-0.6-1.1-1-1.6
					c-0.4-0.4-0.9-0.8-1.5-1.1c-0.6-0.3-1.2-0.4-1.8-0.4s-1.3,0.1-1.8,0.4s-1.1,0.6-1.5,1.1c-0.4,0.4-0.7,1-1,1.6
					c-0.2,0.6-0.4,1.3-0.4,2s0.1,1.4,0.4,2s0.6,1.1,1,1.6c0.4,0.4,0.9,0.8,1.5,1s1.2,0.4,1.8,0.4s1.3-0.1,1.8-0.4
					c0.6-0.3,1-0.6,1.5-1c0.4-0.4,0.7-1,1-1.6S410.7,122.8,410.7,122.1z"/>
				<path class="st1" d="M417.7,129v-13.8h2.4V127h7.4v2.1H417.7z"/>
				<path class="st1" d="M442.9,123.1c0,0.9-0.1,1.8-0.4,2.5s-0.7,1.4-1.2,1.9s-1.1,0.9-1.9,1.2c-0.7,0.3-1.5,0.4-2.4,0.4
					c-1.8,0-3.2-0.5-4.3-1.6c-1.1-1.1-1.6-2.6-1.6-4.5v-7.9h2.4v7.9c0,1.2,0.3,2.2,1,2.9c0.6,0.7,1.5,1.1,2.5,1.1
					c1,0,1.9-0.4,2.5-1.1s0.9-1.7,0.9-2.9v-7.9h2.4V123.1z"/>
				<path class="st1" d="M446.6,117.2v-2.1h11.7v2.1h-4.6V129h-2.4v-11.8H446.6z"/>
				<path class="st1" d="M462.3,129v-13.8h2.4V129H462.3z"/>
				<path class="st1" d="M483.3,122.1c0,1-0.2,1.9-0.5,2.8s-0.9,1.6-1.5,2.3s-1.4,1.1-2.2,1.5c-0.9,0.4-1.8,0.6-2.8,0.6
					s-1.9-0.2-2.8-0.6c-0.9-0.4-1.6-0.9-2.2-1.5c-0.6-0.6-1.1-1.4-1.5-2.3c-0.4-0.9-0.5-1.8-0.5-2.8s0.2-1.9,0.5-2.8
					c0.4-0.9,0.9-1.6,1.5-2.3c0.6-0.6,1.4-1.1,2.2-1.5c0.9-0.4,1.8-0.6,2.8-0.6s1.9,0.2,2.8,0.6c0.9,0.4,1.6,0.9,2.2,1.5
					c0.6,0.6,1.1,1.4,1.5,2.3C483.1,120.2,483.3,121.1,483.3,122.1z M480.9,122.1c0-0.7-0.1-1.4-0.3-2c-0.2-0.6-0.6-1.1-1-1.6
					c-0.4-0.4-0.9-0.8-1.5-1.1c-0.6-0.3-1.2-0.4-1.8-0.4s-1.3,0.1-1.8,0.4s-1.1,0.6-1.5,1.1c-0.4,0.4-0.7,1-1,1.6
					c-0.2,0.6-0.4,1.3-0.4,2s0.1,1.4,0.4,2s0.6,1.1,1,1.6c0.4,0.4,0.9,0.8,1.5,1s1.2,0.4,1.8,0.4s1.3-0.1,1.8-0.4
					c0.6-0.3,1-0.6,1.5-1c0.4-0.4,0.7-1,1-1.6S480.9,122.8,480.9,122.1z"/>
				<path class="st1" d="M487.9,115.2h2.3l7.3,10l0-10h2.3V129h-2.1l-7.5-10.3l0,10.3h-2.3V115.2z"/>
				<path class="st1" d="M503.7,127l1.3-1.7c0.9,0.7,1.7,1.2,2.4,1.5c0.7,0.3,1.5,0.5,2.3,0.5c0.9,0,1.7-0.2,2.3-0.6
					c0.6-0.4,0.9-0.9,0.9-1.6c0-0.6-0.2-1-0.6-1.3c-0.4-0.3-1-0.5-2-0.7l-2.6-0.4c-1.2-0.2-2.1-0.6-2.7-1.2
					c-0.6-0.6-0.9-1.4-0.9-2.3c0-1.2,0.5-2.2,1.4-3c0.9-0.8,2.2-1.1,3.7-1.1c1,0,2,0.2,3,0.5c1,0.3,1.8,0.8,2.6,1.3l-1.2,1.8
					c-0.7-0.5-1.4-0.9-2.2-1.2c-0.8-0.3-1.5-0.4-2.3-0.4c-0.8,0-1.5,0.2-2,0.6c-0.5,0.4-0.8,0.8-0.8,1.4c0,0.5,0.2,0.9,0.5,1.1
					c0.3,0.3,0.9,0.5,1.6,0.6l2.5,0.4c1.4,0.2,2.4,0.7,3.1,1.3c0.7,0.6,1,1.5,1,2.5c0,0.6-0.1,1.2-0.4,1.7s-0.7,1-1.1,1.4
					c-0.5,0.4-1.1,0.7-1.8,0.9c-0.7,0.2-1.4,0.3-2.3,0.3c-1.1,0-2.1-0.2-3.1-0.6C505.5,128.3,504.6,127.7,503.7,127z"/>
			</g>
		</g>
	</g>
	<g>
		<rect x="39.1" y="50" class="st0" width="6.6" height="90.8"/>
		<rect x="23" y="50" class="st0" width="6.6" height="90.8"/>
		<rect x="7" y="50" class="st0" width="6.6" height="90.8"/>
		<rect x="7" y="7.6" class="st0" width="38.6" height="6.6"/>
		<rect x="7" y="21.8" class="st0" width="38.6" height="6.6"/>
		<rect x="7" y="35.9" class="st0" width="38.6" height="6.6"/>
		<path class="st0" d="M95.2,7.6H55.3v31.6v3.3v98.6h40.9c37.2,0,67.3-30.5,66.7-67.8C162.4,36.7,131.8,7.6,95.2,7.6z M96.2,134.5
			H61.8v-92v-3.3V14.2h33.5c33,0,60.6,26.2,61.1,59.2C156.9,107,129.7,134.5,96.2,134.5z"/>
		<path class="st0" d="M94.4,21.9L94.4,21.9C94.4,21.9,94.4,21.9,94.4,21.9l-0.5,0v0H71.3V36l0,0v91h23.1v0
			c29,0,52.5-23.6,52.5-52.5C146.9,45.5,123.4,22,94.4,21.9z M94.4,120.5H77.9v-78v-3.3V28.5h16v0h0.5c25.4,0,46,20.6,46,46
			C140.4,99.9,119.8,120.5,94.4,120.5z"/>
		<path class="st0" d="M91.7,36h-4.3v4.7v1.8V50v64h4.3c21.5,0,39.1-17.5,39.1-39.1C130.8,53.5,113.2,36,91.7,36z M93.9,107.5
			L94,42.6c16.9,1.2,30.2,15.2,30.2,32.4C124.2,92.2,110.8,106.3,93.9,107.5z"/>
	</g>
</g>
</svg>
